# 3ds Max Wavefront OBJ Exporter v0.97b - (c)2007 guruware
# File Created: 15.12.2013 16:53:11

mtllib hookshooter.mtl

#
# object Box023
#

v  0.5000 0.0000 -6.0000
v  0.5000 0.0000 -3.0000
v  -0.5000 0.0000 -3.0000
v  -0.5000 0.0000 -6.0000
v  0.5000 2.0000 -6.0000
v  -0.5000 2.0000 -6.0000
v  -0.5000 2.0000 -3.0000
v  0.5000 2.0000 -3.0000
v  -0.5000 0.0000 -1.0000
v  0.5000 0.0000 -1.0000
v  0.5000 2.0000 -1.0000
v  -0.5000 2.0000 -1.0000
v  -0.5000 -1.0000 -3.0000
v  0.5000 -1.0000 -3.0000
v  0.5000 -1.0000 -1.0000
v  -0.5000 -1.0000 -1.0000
v  0.5000 0.0000 -0.0000
v  -0.5000 0.0000 -0.0000
v  -0.5000 -1.0000 -0.0000
v  0.5000 -1.0000 -0.0000
v  1.5000 -1.0000 -1.0000
v  1.5000 0.0000 -1.0000
v  1.5000 0.0000 -0.0000
v  1.5000 -1.0000 -0.0000
v  0.5000 0.0000 5.0000
v  0.5000 -1.0000 5.0000
v  1.5000 -1.0000 5.0000
v  1.5000 0.0000 5.0000
# 28 vertices

vn 0.0000 -1.0000 -0.0000
vn 0.0000 1.0000 -0.0000
vn 0.0000 0.0000 -1.0000
vn -1.0000 0.0000 -0.0000
vn 0.0000 0.0000 1.0000
vn 1.0000 0.0000 -0.0000
# 6 vertex normals

vt 1.0000 0.0000 0.0000
vt 1.0000 1.0000 0.0000
vt 0.0000 1.0000 0.0000
vt 0.0000 0.0000 0.0000
# 4 texture coords

g Box023
usemtl wire_027177148
s 2
f 1/1/1 2/2/1 3/3/1 
f 3/3/1 4/4/1 1/1/1 
s 4
f 5/4/2 6/1/2 7/2/2 
f 7/2/2 8/3/2 5/4/2 
s 8
f 1/4/3 4/1/3 6/2/3 
f 6/2/3 5/3/3 1/4/3 
s 16
f 4/4/4 3/1/4 7/2/4 
f 7/2/4 6/3/4 4/4/4 
s 32
f 9/4/5 10/1/5 11/2/5 
f 11/2/5 12/3/5 9/4/5 
s 64
f 2/4/6 1/1/6 5/2/6 
f 5/2/6 8/3/6 2/4/6 
s off
f 13/3/1 14/2/1 15/1/1 
f 15/1/1 16/4/1 13/3/1 
f 2/4/6 8/3/6 11/2/6 
f 11/2/6 10/1/6 2/4/6 
f 8/3/2 7/2/2 12/3/2 
f 12/3/2 11/2/2 8/3/2 
f 7/2/4 3/1/4 9/4/4 
f 9/4/4 12/3/4 7/2/4 
f 3/3/3 2/2/3 14/2/3 
f 14/2/3 13/3/3 3/3/3 
f 2/4/6 10/1/6 15/1/6 
f 15/1/6 14/2/6 2/4/6 
f 17/1/5 18/4/5 19/4/5 
f 19/4/5 20/1/5 17/1/5 
f 9/4/4 3/1/4 13/3/4 
f 13/3/4 16/4/4 9/4/4 
f 10/1/2 9/4/2 18/4/2 
f 18/4/2 17/1/2 10/1/2 
f 9/4/4 16/4/4 19/4/4 
f 19/4/4 18/4/4 9/4/4 
f 16/4/1 15/1/1 20/1/1 
f 20/1/1 19/4/1 16/4/1 
f 21/1/6 22/1/6 23/1/6 
f 23/1/6 24/1/6 21/1/6 
f 15/1/3 10/1/3 22/1/3 
f 22/1/3 21/1/3 15/1/3 
f 10/1/2 17/1/2 23/1/2 
f 23/1/2 22/1/2 10/1/2 
f 25/1/5 26/1/5 27/1/5 
f 27/1/5 28/1/5 25/1/5 
f 20/1/1 15/1/1 21/1/1 
f 21/1/1 24/1/1 20/1/1 
f 17/1/4 20/1/4 26/1/4 
f 26/1/4 25/1/4 17/1/4 
f 20/1/1 24/1/1 27/1/1 
f 27/1/1 26/1/1 20/1/1 
f 24/1/6 23/1/6 28/1/6 
f 28/1/6 27/1/6 24/1/6 
f 23/1/2 17/1/2 25/1/2 
f 25/1/2 28/1/2 23/1/2 
# 52 faces

