# 3ds Max Wavefront OBJ Exporter v0.97b - (c)2007 guruware
# File Created: 14.12.2013 23:48:51

mtllib scabbard.mtl

#
# object Box015
#

v  2.0000 0.0000 19.0000
v  2.0000 0.0000 -9.0000
v  2.0000 1.0000 -9.0000
v  2.0000 1.0000 19.0000
v  -1.0000 0.0000 19.0000
v  -1.0000 1.0000 19.0000
v  -1.0000 1.0000 -9.0000
v  -1.0000 0.0000 -9.0000
v  -1.0000 -7.0000 20.0000
v  -1.0000 -7.0000 -10.0000
v  2.0000 -7.0000 -10.0000
v  2.0000 -7.0000 20.0000
v  -1.0000 -2.0000 20.0000
v  2.0000 -2.0000 20.0000
v  2.0000 -2.0000 -10.0000
v  -1.0000 -2.0000 -10.0000
v  3.0000 3.0000 15.5000
v  3.0000 -8.0000 15.5000
v  3.0000 -8.0000 12.5000
v  3.0000 3.0000 12.5000
v  -2.0000 3.0000 15.5000
v  -2.0000 3.0000 12.5000
v  -2.0000 -8.0000 12.5000
v  -2.0000 -8.0000 15.5000
v  3.0000 3.0000 6.5000
v  3.0000 -8.0000 6.5000
v  3.0000 -8.0000 3.5000
v  3.0000 3.0000 3.5000
v  -2.0000 3.0000 6.5000
v  -2.0000 3.0000 3.5000
v  -2.0000 -8.0000 3.5000
v  -2.0000 -8.0000 6.5000
v  1.0000 -1.0000 19.0000
v  1.0000 -1.0000 -9.0000
v  1.0000 2.0000 -9.0000
v  1.0000 2.0000 19.0000
v  0.0000 -1.0000 19.0000
v  0.0000 2.0000 19.0000
v  0.0000 2.0000 -9.0000
v  0.0000 -1.0000 -9.0000
# 40 vertices

vn 1.0000 0.0000 -0.0000
vn -1.0000 0.0000 -0.0000
vn 0.0000 0.0000 1.0000
vn 0.0000 1.0000 -0.0000
vn 0.0000 0.0000 -1.0000
vn 0.0000 -1.0000 -0.0000
# 6 vertex normals

vt 1.0000 0.0000 0.0000
vt 1.0000 1.0000 0.0000
vt 0.0000 1.0000 0.0000
vt 0.0000 0.0000 0.0000
# 4 texture coords

g Box015
usemtl wire_006135113
s 2
f 1/1/1 2/2/1 3/3/1 
f 3/3/1 4/4/1 1/1/1 
s 4
f 5/4/2 6/1/2 7/2/2 
f 7/2/2 8/3/2 5/4/2 
s 8
f 1/4/3 4/1/3 6/2/3 
f 6/2/3 5/3/3 1/4/3 
s 16
f 4/4/4 3/1/4 7/2/4 
f 7/2/4 6/3/4 4/4/4 
s 32
f 3/4/5 2/1/5 8/2/5 
f 8/2/5 7/3/5 3/4/5 
s 64
f 2/4/6 1/1/6 5/2/6 
f 5/2/6 8/3/6 2/4/6 
s 2
f 9/1/6 10/2/6 11/3/6 
f 11/3/6 12/4/6 9/1/6 
s 4
f 13/4/4 14/1/4 15/2/4 
f 15/2/4 16/3/4 13/4/4 
s 8
f 9/4/3 12/1/3 14/2/3 
f 14/2/3 13/3/3 9/4/3 
s 16
f 12/4/1 11/1/1 15/2/1 
f 15/2/1 14/3/1 12/4/1 
s 32
f 11/4/5 10/1/5 16/2/5 
f 16/2/5 15/3/5 11/4/5 
s 64
f 10/4/2 9/1/2 13/2/2 
f 13/2/2 16/3/2 10/4/2 
s 2
f 17/1/1 18/2/1 19/3/1 
f 19/3/1 20/4/1 17/1/1 
s 4
f 21/4/2 22/1/2 23/2/2 
f 23/2/2 24/3/2 21/4/2 
s 8
f 17/4/4 20/1/4 22/2/4 
f 22/2/4 21/3/4 17/4/4 
s 16
f 20/4/5 19/1/5 23/2/5 
f 23/2/5 22/3/5 20/4/5 
s 32
f 19/4/6 18/1/6 24/2/6 
f 24/2/6 23/3/6 19/4/6 
s 64
f 18/4/3 17/1/3 21/2/3 
f 21/2/3 24/3/3 18/4/3 
s 2
f 25/1/1 26/2/1 27/3/1 
f 27/3/1 28/4/1 25/1/1 
s 4
f 29/4/2 30/1/2 31/2/2 
f 31/2/2 32/3/2 29/4/2 
s 8
f 25/4/4 28/1/4 30/2/4 
f 30/2/4 29/3/4 25/4/4 
s 16
f 28/4/5 27/1/5 31/2/5 
f 31/2/5 30/3/5 28/4/5 
s 32
f 27/4/6 26/1/6 32/2/6 
f 32/2/6 31/3/6 27/4/6 
s 64
f 26/4/3 25/1/3 29/2/3 
f 29/2/3 32/3/3 26/4/3 
s 2
f 33/1/1 34/2/1 35/3/1 
f 35/3/1 36/4/1 33/1/1 
s 4
f 37/4/2 38/1/2 39/2/2 
f 39/2/2 40/3/2 37/4/2 
s 8
f 33/4/3 36/1/3 38/2/3 
f 38/2/3 37/3/3 33/4/3 
s 16
f 36/4/4 35/1/4 39/2/4 
f 39/2/4 38/3/4 36/4/4 
s 32
f 35/4/5 34/1/5 40/2/5 
f 40/2/5 39/3/5 35/4/5 
s 64
f 34/4/6 33/1/6 37/2/6 
f 37/2/6 40/3/6 34/4/6 
# 60 faces

