# 3ds Max Wavefront OBJ Exporter v0.97b - (c)2007 guruware
# File Created: 22.12.2013 21:35:31

mtllib scabbard.mtl

#
# object Box015
#

v  1.5000 2.5000 14.0000
v  1.5000 2.5000 -14.0000
v  1.5000 3.5000 -14.0000
v  1.5000 3.5000 14.0000
v  -1.5000 2.5000 14.0000
v  -1.5000 3.5000 14.0000
v  -1.5000 3.5000 -14.0000
v  -1.5000 2.5000 -14.0000
v  -1.5000 -4.5000 15.0000
v  -1.5000 -4.5000 -15.0000
v  1.5000 -4.5000 -15.0000
v  1.5000 -4.5000 15.0000
v  -1.5000 0.5000 15.0000
v  1.5000 0.5000 15.0000
v  1.5000 0.5000 -15.0000
v  -1.5000 0.5000 -15.0000
v  2.5000 5.5000 10.5000
v  2.5000 -5.5000 10.5000
v  2.5000 -5.5000 7.5000
v  2.5000 5.5000 7.5000
v  -2.5000 5.5000 10.5000
v  -2.5000 5.5000 7.5000
v  -2.5000 -5.5000 7.5000
v  -2.5000 -5.5000 10.5000
v  2.5000 5.5000 1.5000
v  2.5000 -5.5000 1.5000
v  2.5000 -5.5000 -1.5000
v  2.5000 5.5000 -1.5000
v  -2.5000 5.5000 1.5000
v  -2.5000 5.5000 -1.5000
v  -2.5000 -5.5000 -1.5000
v  -2.5000 -5.5000 1.5000
v  0.5000 1.5000 14.0000
v  0.5000 1.5000 -14.0000
v  0.5000 4.5000 -14.0000
v  0.5000 4.5000 14.0000
v  -0.5000 1.5000 14.0000
v  -0.5000 4.5000 14.0000
v  -0.5000 4.5000 -14.0000
v  -0.5000 1.5000 -14.0000
# 40 vertices

vn 1.0000 0.0000 -0.0000
vn -1.0000 0.0000 -0.0000
vn 0.0000 0.0000 1.0000
vn 0.0000 1.0000 -0.0000
vn 0.0000 0.0000 -1.0000
vn 0.0000 -1.0000 -0.0000
# 6 vertex normals

vt 0.8095 0.9286 0.0000
vt 0.8095 0.2619 0.0000
vt 0.8333 0.2619 0.0000
vt 0.8333 0.9286 0.0000
vt 0.7857 0.2619 0.0000
vt 0.7857 0.9286 0.0000
vt 0.3810 0.9286 0.0000
vt 0.4048 0.9286 0.0000
vt 0.4048 1.0000 0.0000
vt 0.3810 1.0000 0.0000
vt 0.5238 0.0000 0.0000
vt 0.5238 0.6667 0.0000
vt 0.4524 0.6667 0.0000
vt 0.4524 0.0000 0.0000
vt 0.4762 1.0000 0.0000
vt 0.4524 1.0000 0.0000
vt 0.4524 0.9286 0.0000
vt 0.4762 0.9286 0.0000
vt 0.5952 0.0000 0.0000
vt 0.5952 0.6667 0.0000
vt 0.3095 0.7143 0.0000
vt 0.3095 0.0000 0.0000
vt 0.3810 0.0000 0.0000
vt 0.3810 0.7143 0.0000
vt 0.2381 0.0000 0.0000
vt 0.2381 0.7143 0.0000
vt 0.8809 0.2619 0.0000
vt 0.9524 0.2619 0.0000
vt 0.9524 0.3810 0.0000
vt 0.8809 0.3810 0.0000
vt 0.0000 0.7143 0.0000
vt 0.0000 0.0000 0.0000
vt 0.1190 0.0000 0.0000
vt 0.1190 0.7143 0.0000
vt 0.7857 0.0000 0.0000
vt 0.8571 0.0000 0.0000
vt 0.8571 0.1190 0.0000
vt 0.7857 0.1190 0.0000
vt 0.3095 0.9762 0.0000
vt 0.3810 0.9762 0.0000
vt 0.3810 0.6667 0.0000
vt 0.8571 0.2381 0.0000
vt 0.7857 0.2381 0.0000
vt 0.0000 0.9762 0.0000
vt 0.1190 0.9762 0.0000
vt 0.6667 0.5238 0.0000
vt 0.7381 0.5238 0.0000
vt 0.7381 0.6429 0.0000
vt 0.6667 0.6429 0.0000
vt 0.2381 0.9762 0.0000
vt 0.5238 0.9286 0.0000
vt 0.6667 0.6667 0.0000
vt 0.6667 0.7857 0.0000
vt 0.5952 0.7857 0.0000
vt 0.6667 0.2619 0.0000
vt 0.6667 0.0000 0.0000
vt 0.5238 0.7857 0.0000
vt 0.7857 0.5238 0.0000
vt 0.8333 1.0000 0.0000
vt 0.8095 1.0000 0.0000
vt 0.8571 0.2619 0.0000
vt 0.8571 0.9286 0.0000
vt 0.7857 1.0000 0.0000
vt 0.8809 0.9286 0.0000
# 64 texture coords

g Box015
usemtl wire_028149177
s 2
f 1/1/1 2/2/1 3/3/1 
f 3/3/1 4/4/1 1/1/1 
s 4
f 5/5/2 6/2/2 7/1/2 
f 7/1/2 8/6/2 5/5/2 
s 8
f 1/7/3 4/8/3 6/9/3 
f 6/9/3 5/10/3 1/7/3 
s 16
f 4/11/4 3/12/4 7/13/4 
f 7/13/4 6/14/4 4/11/4 
s 32
f 3/15/5 2/16/5 8/17/5 
f 8/17/5 7/18/5 3/15/5 
s 64
f 2/19/6 1/20/6 5/12/6 
f 5/12/6 8/11/6 2/19/6 
s 2
f 9/21/6 10/22/6 11/23/6 
f 11/23/6 12/24/6 9/21/6 
s 4
f 13/25/4 14/22/4 15/21/4 
f 15/21/4 16/26/4 13/25/4 
s 8
f 9/27/3 12/28/3 14/29/3 
f 14/29/3 13/30/3 9/27/3 
s 16
f 12/31/1 11/32/1 15/33/1 
f 15/33/1 14/34/1 12/31/1 
s 32
f 11/35/5 10/36/5 16/37/5 
f 16/37/5 15/38/5 11/35/5 
s 64
f 10/34/2 9/33/2 13/25/2 
f 13/25/2 16/26/2 10/34/2 
s 2
f 17/39/1 18/21/1 19/24/1 
f 19/24/1 20/40/1 17/39/1 
s 4
f 21/17/2 22/7/2 23/41/2 
f 23/41/2 24/13/2 21/17/2 
s 8
f 17/38/4 20/37/4 22/42/4 
f 22/42/4 21/43/4 17/38/4 
s 16
f 20/44/5 19/31/5 23/34/5 
f 23/34/5 22/45/5 20/44/5 
s 32
f 19/46/6 18/47/6 24/48/6 
f 24/48/6 23/49/6 19/46/6 
s 64
f 18/26/3 17/50/3 21/45/3 
f 21/45/3 24/34/3 18/26/3 
s 2
f 25/17/1 26/13/1 27/12/1 
f 27/12/1 28/51/1 25/17/1 
s 4
f 29/39/2 30/50/2 31/26/2 
f 31/26/2 32/21/2 29/39/2 
s 8
f 25/20/4 28/52/4 30/53/4 
f 30/53/4 29/54/4 25/20/4 
s 16
f 28/55/5 27/56/5 31/35/5 
f 31/35/5 30/5/5 28/55/5 
s 32
f 27/12/6 26/20/6 32/54/6 
f 32/54/6 31/57/6 27/12/6 
s 64
f 26/5/3 25/58/3 29/46/3 
f 29/46/3 32/55/3 26/5/3 
s 2
f 33/20/1 34/19/1 35/56/1 
f 35/56/1 36/52/1 33/20/1 
s 4
f 37/23/2 38/14/2 39/13/2 
f 39/13/2 40/41/2 37/23/2 
s 8
f 33/4/3 36/59/3 38/60/3 
f 38/60/3 37/1/3 33/4/3 
s 16
f 36/61/4 35/62/4 39/4/4 
f 39/4/4 38/3/4 36/61/4 
s 32
f 35/63/5 34/6/5 40/1/5 
f 40/1/5 39/60/5 35/63/5 
s 64
f 34/27/6 33/64/6 37/62/6 
f 37/62/6 40/61/6 34/27/6 
# 60 faces

